{
	"asset":{
		"generator":"Khronos glTF Blender I/O v3.5.30",
		"version":"2.0"
	},
	"extensionsUsed":[
		"KHR_materials_specular",
		"KHR_materials_ior"
	],
	"scene":0,
	"scenes":[
		{
			"name":"Scene",
			"nodes":[
				0,
				1
			]
		}
	],
	"nodes":[
		{
			"mesh":0,
			"name":"TQ_ARD-node"
		},
		{
			"mesh":1,
			"name":"TQ_ARD-node.001"
		}
	],
	"materials":[
		{
			"doubleSided":true,
			"extensions":{
				"KHR_materials_specular":{
					"specularColorFactor":[
						0,
						0,
						0
					]
				},
				"KHR_materials_ior":{
					"ior":0
				}
			},
			"name":"TQ_ARD_front",
			"pbrMetallicRoughness":{
				"baseColorTexture":{
					"index":0
				},
				"metallicFactor":0,
				"roughnessFactor":0
			}
		},
		{
			"doubleSided":true,
			"extensions":{
				"KHR_materials_specular":{
					"specularColorFactor":[
						0,
						0,
						0
					]
				},
				"KHR_materials_ior":{
					"ior":0
				}
			},
			"name":"TQ_ARD_back",
			"pbrMetallicRoughness":{
				"baseColorFactor":[
					0.996078372001648,
					0.9019607901573181,
					0.6627451181411743,
					1
				],
				"metallicFactor":0,
				"roughnessFactor":0.5
			}
		},
		{
			"doubleSided":true,
			"extensions":{
				"KHR_materials_specular":{
					"specularColorFactor":[
						0,
						0,
						0
					]
				},
				"KHR_materials_ior":{
					"ior":0
				}
			},
			"name":"TQ_ARD_edge",
			"pbrMetallicRoughness":{
				"baseColorTexture":{
					"index":1
				},
				"metallicFactor":0,
				"roughnessFactor":0.5
			}
		},
		{
			"doubleSided":true,
			"extensions":{
				"KHR_materials_specular":{
					"specularColorFactor":[
						0,
						0,
						0
					]
				},
				"KHR_materials_ior":{
					"ior":0
				}
			},
			"name":"TQ_ARD_front.001",
			"pbrMetallicRoughness":{
				"baseColorTexture":{
					"index":2
				},
				"metallicFactor":0,
				"roughnessFactor":0
			}
		}
	],
	"meshes":[
		{
			"name":"TQ_ARD-geom",
			"primitives":[
				{
					"attributes":{
						"POSITION":0,
						"TEXCOORD_0":1,
						"NORMAL":2
					},
					"indices":3,
					"material":0
				},
				{
					"attributes":{
						"POSITION":4,
						"TEXCOORD_0":5,
						"NORMAL":6
					},
					"indices":7,
					"material":1
				},
				{
					"attributes":{
						"POSITION":8,
						"TEXCOORD_0":9,
						"NORMAL":10
					},
					"indices":11,
					"material":2
				}
			]
		},
		{
			"name":"TQ_ARD-geom.001",
			"primitives":[
				{
					"attributes":{
						"POSITION":12,
						"TEXCOORD_0":13,
						"NORMAL":14
					},
					"indices":15,
					"material":3
				},
				{
					"attributes":{
						"POSITION":16,
						"TEXCOORD_0":17,
						"NORMAL":18
					},
					"indices":19,
					"material":1
				},
				{
					"attributes":{
						"POSITION":20,
						"TEXCOORD_0":21,
						"NORMAL":22
					},
					"indices":23,
					"material":2
				}
			]
		}
	],
	"textures":[
		{
			"sampler":0,
			"source":0
		},
		{
			"sampler":0,
			"source":1
		},
		{
			"sampler":0,
			"source":2
		}
	],
	"images":[
		{
			"bufferView":4,
			"mimeType":"image/jpeg",
			"name":"2"
		},
		{
			"bufferView":13,
			"mimeType":"image/png",
			"name":"TQ_ARD-I1"
		},
		{
			"bufferView":18,
			"mimeType":"image/jpeg",
			"name":"1"
		}
	],
	"accessors":[
		{
			"bufferView":0,
			"componentType":5126,
			"count":577,
			"max":[
				0.2523398697376251,
				0.5052013397216797,
				0.6586927771568298
			],
			"min":[
				-0.2492476850748062,
				0.003613680601119995,
				0.1571037322282791
			],
			"type":"VEC3"
		},
		{
			"bufferView":1,
			"componentType":5126,
			"count":577,
			"type":"VEC2"
		},
		{
			"bufferView":2,
			"componentType":5126,
			"count":577,
			"type":"VEC3"
		},
		{
			"bufferView":3,
			"componentType":5123,
			"count":1662,
			"type":"SCALAR"
		},
		{
			"bufferView":5,
			"componentType":5126,
			"count":500,
			"max":[
				0.25139114260673523,
				0.504175066947937,
				0.6578974723815918
			],
			"min":[
				-0.2484539896249771,
				0.004639968276023865,
				0.15789750218391418
			],
			"type":"VEC3"
		},
		{
			"bufferView":6,
			"componentType":5126,
			"count":500,
			"type":"VEC2"
		},
		{
			"bufferView":7,
			"componentType":5126,
			"count":500,
			"type":"VEC3"
		},
		{
			"bufferView":8,
			"componentType":5123,
			"count":1662,
			"type":"SCALAR"
		},
		{
			"bufferView":9,
			"componentType":5126,
			"count":781,
			"max":[
				0.2523398697376251,
				0.5052013397216797,
				0.6586927771568298
			],
			"min":[
				-0.2492476850748062,
				0.003613680601119995,
				0.15764844417572021
			],
			"type":"VEC3"
		},
		{
			"bufferView":10,
			"componentType":5126,
			"count":781,
			"type":"VEC2"
		},
		{
			"bufferView":11,
			"componentType":5126,
			"count":781,
			"type":"VEC3"
		},
		{
			"bufferView":12,
			"componentType":5123,
			"count":1608,
			"type":"SCALAR"
		},
		{
			"bufferView":14,
			"componentType":5126,
			"count":581,
			"max":[
				0.2523398697376251,
				0.5052013397216797,
				-0.08816921710968018
			],
			"min":[
				-0.2492476850748062,
				0.003613680601119995,
				-0.5897582769393921
			],
			"type":"VEC3"
		},
		{
			"bufferView":15,
			"componentType":5126,
			"count":581,
			"type":"VEC2"
		},
		{
			"bufferView":16,
			"componentType":5126,
			"count":581,
			"type":"VEC3"
		},
		{
			"bufferView":17,
			"componentType":5123,
			"count":1662,
			"type":"SCALAR"
		},
		{
			"bufferView":19,
			"componentType":5126,
			"count":505,
			"max":[
				0.25139114260673523,
				0.504175066947937,
				-0.08896452188491821
			],
			"min":[
				-0.2484539896249771,
				0.004639968276023865,
				-0.5889644622802734
			],
			"type":"VEC3"
		},
		{
			"bufferView":20,
			"componentType":5126,
			"count":505,
			"type":"VEC2"
		},
		{
			"bufferView":21,
			"componentType":5126,
			"count":505,
			"type":"VEC3"
		},
		{
			"bufferView":22,
			"componentType":5123,
			"count":1662,
			"type":"SCALAR"
		},
		{
			"bufferView":23,
			"componentType":5126,
			"count":761,
			"max":[
				0.2523398697376251,
				0.5052013397216797,
				-0.08816921710968018
			],
			"min":[
				-0.2492476850748062,
				0.003613680601119995,
				-0.5892135500907898
			],
			"type":"VEC3"
		},
		{
			"bufferView":24,
			"componentType":5126,
			"count":761,
			"type":"VEC2"
		},
		{
			"bufferView":25,
			"componentType":5126,
			"count":761,
			"type":"VEC3"
		},
		{
			"bufferView":26,
			"componentType":5123,
			"count":1608,
			"type":"SCALAR"
		}
	],
	"bufferViews":[
		{
			"buffer":0,
			"byteLength":6924,
			"byteOffset":0,
			"target":34962
		},
		{
			"buffer":0,
			"byteLength":4616,
			"byteOffset":6924,
			"target":34962
		},
		{
			"buffer":0,
			"byteLength":6924,
			"byteOffset":11540,
			"target":34962
		},
		{
			"buffer":0,
			"byteLength":3324,
			"byteOffset":18464,
			"target":34963
		},
		{
			"buffer":0,
			"byteLength":1504727,
			"byteOffset":21788
		},
		{
			"buffer":0,
			"byteLength":6000,
			"byteOffset":1526516,
			"target":34962
		},
		{
			"buffer":0,
			"byteLength":4000,
			"byteOffset":1532516,
			"target":34962
		},
		{
			"buffer":0,
			"byteLength":6000,
			"byteOffset":1536516,
			"target":34962
		},
		{
			"buffer":0,
			"byteLength":3324,
			"byteOffset":1542516,
			"target":34963
		},
		{
			"buffer":0,
			"byteLength":9372,
			"byteOffset":1545840,
			"target":34962
		},
		{
			"buffer":0,
			"byteLength":6248,
			"byteOffset":1555212,
			"target":34962
		},
		{
			"buffer":0,
			"byteLength":9372,
			"byteOffset":1561460,
			"target":34962
		},
		{
			"buffer":0,
			"byteLength":3216,
			"byteOffset":1570832,
			"target":34963
		},
		{
			"buffer":0,
			"byteLength":767,
			"byteOffset":1574048
		},
		{
			"buffer":0,
			"byteLength":6972,
			"byteOffset":1574816,
			"target":34962
		},
		{
			"buffer":0,
			"byteLength":4648,
			"byteOffset":1581788,
			"target":34962
		},
		{
			"buffer":0,
			"byteLength":6972,
			"byteOffset":1586436,
			"target":34962
		},
		{
			"buffer":0,
			"byteLength":3324,
			"byteOffset":1593408,
			"target":34963
		},
		{
			"buffer":0,
			"byteLength":1300744,
			"byteOffset":1596732
		},
		{
			"buffer":0,
			"byteLength":6060,
			"byteOffset":2897476,
			"target":34962
		},
		{
			"buffer":0,
			"byteLength":4040,
			"byteOffset":2903536,
			"target":34962
		},
		{
			"buffer":0,
			"byteLength":6060,
			"byteOffset":2907576,
			"target":34962
		},
		{
			"buffer":0,
			"byteLength":3324,
			"byteOffset":2913636,
			"target":34963
		},
		{
			"buffer":0,
			"byteLength":9132,
			"byteOffset":2916960,
			"target":34962
		},
		{
			"buffer":0,
			"byteLength":6088,
			"byteOffset":2926092,
			"target":34962
		},
		{
			"buffer":0,
			"byteLength":9132,
			"byteOffset":2932180,
			"target":34962
		},
		{
			"buffer":0,
			"byteLength":3216,
			"byteOffset":2941312,
			"target":34963
		}
	],
	"samplers":[
		{
			"magFilter":9729,
			"minFilter":9987
		}
	],
	"buffers":[
		{
			"byteLength":2944528,
			"uri":"data:application/octet-stream;base64,"
		}
	]
}
